<svg xmlns="http://www.w3.org/2000/svg" xmlns:xlink="http://www.w3.org/1999/xlink" width="980" zoomAndPan="magnify" viewBox="0 0 735 735" height="980" preserveAspectRatio="xMidYMid meet" version="1.0"><defs><clipPath id="b13776abc4"><path d="M 57.03125 51.363281 L 233.28125 51.363281 L 233.28125 714 L 57.03125 714 Z M 57.03125 51.363281 " clip-rule="nonzero"/></clipPath><clipPath id="024e0bea37"><path d="M 57.03125 76.863281 L 57.03125 688.488281 C 57.03125 702.574219 68.449219 713.988281 82.53125 713.988281 L 207.558594 713.988281 C 221.640625 713.988281 233.058594 702.574219 233.058594 688.488281 L 233.058594 76.863281 C 233.058594 62.78125 221.640625 51.363281 207.558594 51.363281 L 82.53125 51.363281 C 68.449219 51.363281 57.03125 62.78125 57.03125 76.863281 Z M 57.03125 76.863281 " clip-rule="nonzero"/></clipPath><clipPath id="2ac61fdf71"><path d="M 0.03125 0.363281 L 176.28125 0.363281 L 176.28125 663 L 0.03125 663 Z M 0.03125 0.363281 " clip-rule="nonzero"/></clipPath><clipPath id="86bc053520"><path d="M 0.03125 25.863281 L 0.03125 637.488281 C 0.03125 651.574219 11.449219 662.988281 25.53125 662.988281 L 150.558594 662.988281 C 164.640625 662.988281 176.058594 651.574219 176.058594 637.488281 L 176.058594 25.863281 C 176.058594 11.78125 164.640625 0.363281 150.558594 0.363281 L 25.53125 0.363281 C 11.449219 0.363281 0.03125 11.78125 0.03125 25.863281 Z M 0.03125 25.863281 " clip-rule="nonzero"/></clipPath><clipPath id="2bb2ce498e"><rect x="0" width="177" y="0" height="663"/></clipPath><clipPath id="3a4fc245d7"><path d="M 271.25 52.488281 L 447.5 52.488281 L 447.5 715.488281 L 271.25 715.488281 Z M 271.25 52.488281 " clip-rule="nonzero"/></clipPath><clipPath id="8ebc18c7be"><path d="M 271.25 77.988281 L 271.25 689.617188 C 271.25 703.699219 282.667969 715.117188 296.75 715.117188 L 421.777344 715.117188 C 435.863281 715.117188 447.277344 703.699219 447.277344 689.617188 L 447.277344 77.988281 C 447.277344 63.90625 435.863281 52.488281 421.777344 52.488281 L 296.75 52.488281 C 282.667969 52.488281 271.25 63.90625 271.25 77.988281 Z M 271.25 77.988281 " clip-rule="nonzero"/></clipPath><clipPath id="0b2b6644ed"><path d="M 0.25 0.488281 L 176.359375 0.488281 L 176.359375 663 L 0.25 663 Z M 0.25 0.488281 " clip-rule="nonzero"/></clipPath><clipPath id="94a822720e"><path d="M 0.25 25.988281 L 0.25 637.617188 C 0.25 651.699219 11.667969 663.117188 25.75 663.117188 L 150.777344 663.117188 C 164.863281 663.117188 176.277344 651.699219 176.277344 637.617188 L 176.277344 25.988281 C 176.277344 11.90625 164.863281 0.488281 150.777344 0.488281 L 25.75 0.488281 C 11.667969 0.488281 0.25 11.90625 0.25 25.988281 Z M 0.25 25.988281 " clip-rule="nonzero"/></clipPath><clipPath id="671595bda1"><rect x="0" width="177" y="0" height="664"/></clipPath><clipPath id="448fa84155"><path d="M 485.472656 53.617188 L 661.722656 53.617188 L 661.722656 716.617188 L 485.472656 716.617188 Z M 485.472656 53.617188 " clip-rule="nonzero"/></clipPath><clipPath id="c5ca6623c5"><path d="M 485.472656 79.117188 L 485.472656 690.746094 C 485.472656 704.828125 496.890625 716.246094 510.972656 716.246094 L 636 716.246094 C 650.082031 716.246094 661.5 704.828125 661.5 690.746094 L 661.5 79.117188 C 661.5 65.035156 650.082031 53.617188 636 53.617188 L 510.972656 53.617188 C 496.890625 53.617188 485.472656 65.035156 485.472656 79.117188 Z M 485.472656 79.117188 " clip-rule="nonzero"/></clipPath><clipPath id="774a5cf0e0"><path d="M 0.472656 0.617188 L 176.679688 0.617188 L 176.679688 663 L 0.472656 663 Z M 0.472656 0.617188 " clip-rule="nonzero"/></clipPath><clipPath id="29852be3ae"><path d="M 0.472656 26.117188 L 0.472656 637.746094 C 0.472656 651.828125 11.890625 663.246094 25.972656 663.246094 L 151 663.246094 C 165.082031 663.246094 176.5 651.828125 176.5 637.746094 L 176.5 26.117188 C 176.5 12.035156 165.082031 0.617188 151 0.617188 L 25.972656 0.617188 C 11.890625 0.617188 0.472656 12.035156 0.472656 26.117188 Z M 0.472656 26.117188 " clip-rule="nonzero"/></clipPath><clipPath id="b09ab28a48"><rect x="0" width="177" y="0" height="664"/></clipPath></defs><g clip-path="url(#b13776abc4)"><g clip-path="url(#024e0bea37)"><g transform="matrix(1, 0, 0, 1, 57, 51)"><g clip-path="url(#2bb2ce498e)"><g clip-path="url(#2ac61fdf71)"><g clip-path="url(#86bc053520)"><path fill="#29b764" d="M 259.375 662.617188 L -0.992188 392.527344 L -0.992188 -1.664062 L 259.375 -1.664062 L 259.375 662.617188 " fill-opacity="1" fill-rule="nonzero"/></g></g></g></g></g></g><g clip-path="url(#3a4fc245d7)"><g clip-path="url(#8ebc18c7be)"><g transform="matrix(1, 0, 0, 1, 271, 52)"><g clip-path="url(#671595bda1)"><g clip-path="url(#0b2b6644ed)"><g clip-path="url(#94a822720e)"><path fill="#29b764" d="M 259.597656 662.742188 L -0.769531 392.65625 L -0.769531 -1.535156 L 259.597656 -1.535156 L 259.597656 662.742188 " fill-opacity="1" fill-rule="nonzero"/></g></g></g></g></g></g><g clip-path="url(#448fa84155)"><g clip-path="url(#c5ca6623c5)"><g transform="matrix(1, 0, 0, 1, 485, 53)"><g clip-path="url(#b09ab28a48)"><g clip-path="url(#774a5cf0e0)"><g clip-path="url(#29852be3ae)"><path fill="#29b764" d="M 259.816406 662.871094 L -0.550781 392.785156 L -0.550781 -1.410156 L 259.816406 -1.410156 L 259.816406 662.871094 " fill-opacity="1" fill-rule="nonzero"/></g></g></g></g></g></g></svg>